<svg xmlns="http://www.w3.org/2000/svg" viewBox="0 0 730 500" width="730" height="500">
	<style>
		tspan { white-space:pre }
		.shp0 { fill: #333333 } 
	</style>
	<g id="layer1">
		<g id="g2402">
			<g id="g3035">
				<path id="path2405" class="shp0" d="M617.73,325.4l-183.43,-317.23l-105.97,60.87l147.51,256.36z" />
				<path id="path2407" class="shp0" d="M103.5,325.4h141.48l-56.07,-97.2l-105.97,61.28z" />
				<path id="path2409" class="shp0" d="M290.9,488.95h30.16v-122.01h-30.16z" />
				<path id="path2411" class="shp0" d="M723.7,449.88c0,-16.45 -12.06,-28.24 -30.98,-33.04c-19.74,-5.21 -45.1,-4.39 -45.1,-16.86c0.69,-8.5 8.77,-10.97 20.98,-10.97c18.1,0 19.33,10.14 19.6,16.59h30.71c-2.06,-23.85 -21.39,-39.89 -51.96,-39.89c-31.53,0 -50.45,17.27 -50.45,39.07c0,12.89 6.85,24.13 17,29.34c7.95,4.11 18.92,6.44 31.81,8.5c12.89,2.06 24.95,2.88 25.77,12.48c0,6.03 -6.44,14.12 -20.15,14.12c-20.56,-0.41 -25.36,-11.65 -25.36,-19.33h-31.81c1.1,24.54 21.39,41.95 55.11,41.95c30.3,0 54.84,-11.65 54.84,-41.95z" />
				<path id="path2413" class="shp0" d="M719.86,343.77c0,8.5 -7.27,15.49 -15.9,15.49c-8.5,0 -15.35,-6.99 -15.35,-15.49c0,-8.64 6.85,-15.63 15.35,-15.63c8.64,0 15.9,6.99 15.9,15.63zM690.66,343.77c0,7.27 6.03,13.43 13.3,13.43c7.27,0 13.85,-6.17 13.85,-13.43c0,-7.4 -6.58,-13.57 -13.85,-13.57c-7.27,0 -13.3,6.17 -13.3,13.57zM710.26,347.47c0,2.19 0,3.7 0.55,4.8h-2.6c-0.55,-0.55 -0.55,-1.1 -0.55,-2.06c0,-3.29 -0.55,-4.94 -2.6,-4.94h-3.7v6.99h-2.74v-17.14h5.89c3.15,0 5.76,1.51 5.76,4.8c0,2.19 -1.1,3.84 -2.6,4.39c1.1,0 2.6,0.41 2.6,3.15zM701.35,342.67h2.6c1.51,0 3.7,-0.55 3.7,-2.19c0,-1.65 -1.1,-2.74 -2.6,-2.74h-3.7z" />
				<path id="path2415" class="shp0" d="M290.9,325.26v30.3h30.16v-30.16h110.91l-118.86,-205.91l-105.97,61.14z" />
				<path id="path2417" class="shp0" d="M209.88,491.83c-35.1,0 -63.61,-28.65 -63.61,-63.34c0,-35.1 28.52,-62.79 63.61,-62.79c13.3,0 25.36,3.56 35.92,10.83v-51.14h30.16v163.55h-30.16v-8.09c-10.56,6.85 -22.62,10.97 -35.92,10.97zM175.2,428.49c0,18.92 16.18,34.68 35.51,34.68c18.92,0 35.1,-15.77 35.1,-34.68c0,-18.92 -16.18,-35.1 -35.1,-35.1c-19.33,0 -35.51,16.18 -35.51,35.1z" />
				<path id="path2419" class="shp0" d="M432.79,325.4h29.75v163.55h-29.75v-8.09c-10.14,6.85 -22.62,10.97 -36.33,10.97c-34.68,0 -63.2,-28.65 -63.2,-63.34c0,-35.1 28.51,-62.79 63.2,-62.79c13.71,0 25.77,3.56 36.33,10.83zM362.6,428.49c0,18.92 16.18,34.68 34.68,34.68c19.33,0 35.51,-15.77 35.51,-34.68c0,-18.92 -16.18,-35.1 -35.51,-35.1c-18.51,0 -34.68,16.18 -34.68,35.1z" />
				<path id="path2421" class="shp0" d="M535.88,491.83c-34.55,0 -63.2,-28.65 -63.2,-63.34c0,-35.1 28.65,-62.79 63.2,-62.79c13.3,0 25.77,3.56 35.92,10.83v-9.73h30.16v122.15h-30.16v-8.09c-10.14,6.85 -22.21,10.97 -35.92,10.97zM502.02,428.49c0,18.92 16.18,34.68 35.1,34.68c18.92,0 34.68,-15.77 34.68,-34.68c0,-18.92 -15.77,-35.1 -34.68,-35.1c-18.92,0 -35.1,16.18 -35.1,35.1z" />
				<path id="path2423" class="shp0" d="M69.64,491.83c-34.68,0 -63.34,-28.65 -63.34,-63.34c0,-35.1 28.65,-62.79 63.34,-62.79c13.3,0 25.77,3.56 36.33,10.83v-9.73h29.75v122.15h-29.75v-8.09c-10.14,6.85 -22.62,10.97 -36.33,10.97zM35.36,428.49c0,18.92 16.18,34.68 35.1,34.68c19.33,0 35.51,-15.77 35.51,-34.68c0,-18.92 -16.18,-35.1 -35.51,-35.1c-18.92,0 -35.1,16.18 -35.1,35.1z" />
			</g>
		</g>
	</g>
</svg>